# xmcd CD database file
#
# Track frame offsets:
#	150
#	102192
#	129397
#	162247
#	194292
#	204870
#	210540
#
# Disc length: 3337 seconds
#
# Revision: 1
# Processed by: cddbd v1.5.2PL0 Copyright (c) Steve Scherf et al.
# Submitted via: CDex 1.70beta2
#
DISCID=570d0707
DTITLE=Giant Sand - Backyard Barbecue Broadcast
DYEAR=1995
DGENRE=Alt Country
TTITLE0=BBQ Suite: World Stands Still - Good and Gone - I Wish You Love - Romance of Falling - Seashells
TTITLE1=Mope-a-long
TTITLE2=Lean
TTITLE3=Get to Leave
TTITLE4=Lester Lampshade
TTITLE5=Blue Waltz Repise
TTITLE6=Rolling Stones I Am
EXTD=YEAR: 1995
EXTT0=
EXTT1=
EXTT2=
EXTT3=
EXTT4=
EXTT5=
EXTT6=
PLAYORDER=
